<?xml version="1.0" encoding="utf-8"?>
<!-- Generator: Adobe Illustrator 27.1.1, SVG Export Plug-In . SVG Version: 6.00 Build 0)  -->
<svg version="1.1" id="Capa_1" xmlns="http://www.w3.org/2000/svg" xmlns:xlink="http://www.w3.org/1999/xlink" x="0px" y="0px"
	 viewBox="0 0 70.9 70.9" style="enable-background:new 0 0 70.9 70.9;" xml:space="preserve">
<style type="text/css">
	.st0{fill:#FFFFFF;}
	.st1{fill:#FBB040;}
	.st2{clip-path:url(#SVGID_00000143575208699511827910000011235150252708314758_);}
	.st3{fill:#FBBCA0;}
	.st4{fill:#E6E7E8;}
	.st5{fill:#DDA78F;}
	.st6{fill:#3C2415;}
	.st7{fill:#414042;}
	.st8{fill:#BD1E2D;}
	.st9{fill:#BE1E2D;}
	.st10{fill:#D1D3D4;}
	.st11{fill:#2E2E2F;}
	.st12{fill:#E2E3E4;}
</style>
<path class="st0" d="M-308,378.9"/>
<ellipse transform="matrix(0.331 -0.9436 0.9436 0.331 -9.7359 57.1675)" class="st1" cx="35.5" cy="35.5" rx="35.4" ry="35.5"/>
<g>
	<defs>
		
			<ellipse id="SVGID_1_" transform="matrix(0.331 -0.9436 0.9436 0.331 -9.7359 57.1675)" cx="35.5" cy="35.5" rx="35.4" ry="35.5"/>
	</defs>
	<clipPath id="SVGID_00000180363409948908651270000011638179461987656871_">
		<use xlink:href="#SVGID_1_"  style="overflow:visible;"/>
	</clipPath>
	<g style="clip-path:url(#SVGID_00000180363409948908651270000011638179461987656871_);">
		<rect x="29.9" y="46.4" class="st3" width="13.6" height="9.1"/>
		<path class="st4" d="M33.2,53c2,0.8,4.3,1.3,6.5,1.3c1.3,0,2.5-0.1,3.8-0.4v-7.6H29.9v4.7C30.8,51.9,32,52.5,33.2,53z"/>
		<g>
			<path class="st3" d="M51.3,29.1c0-0.3,0.6-0.9,0.9-1.1c0.6-0.4,1.1,0,1.3,0.5c0.1,0.5,0.2,1,0.2,1.5c0.1,1.2-0.1,2.4-0.6,3.5
				c-0.4,0.7-0.9,1.3-1.6,1.8c0,0-0.7,0.4-0.9-0.5C50.6,35,51.3,29.2,51.3,29.1z"/>
			<path class="st5" d="M51.2,29.9c0-0.2,0.4-0.6,0.6-0.8c0.4-0.3,0.8,0,0.9,0.4c0.1,0.3,0.1,0.7,0.1,1.1c0.1,0.9-0.1,1.7-0.5,2.5
				c-0.3,0.5-0.7,1-1.2,1.3c0,0-0.5,0.3-0.6-0.3C50.7,34,51.2,29.9,51.2,29.9z"/>
		</g>
		<g>
			<path class="st3" d="M21.6,29.1c0-0.3-0.6-0.9-0.9-1.1c-0.6-0.4-1.1,0-1.3,0.5c-0.1,0.5-0.2,1-0.2,1.5c-0.1,1.2,0.1,2.4,0.6,3.5
				c0.4,0.7,0.9,1.3,1.6,1.8c0,0,0.7,0.4,0.9-0.5C22.4,35,21.6,29.2,21.6,29.1z"/>
			<path class="st5" d="M21.7,29.9c0-0.2-0.4-0.6-0.6-0.8c-0.4-0.3-0.8,0-0.9,0.4c-0.1,0.3-0.1,0.7-0.1,1.1
				c-0.1,0.9,0.1,1.7,0.5,2.5c0.3,0.5,0.7,1,1.2,1.3c0,0,0.5,0.3,0.6-0.3C22.3,34,21.7,29.9,21.7,29.9z"/>
		</g>
		<path class="st3" d="M51.8,30.2c0,3.8-0.7,7.7-2.5,11c-1.6,2.9-4,5.2-6.5,7.1c-2.1,1.5-4.3,3.3-6.9,3c-2.7-0.2-4.8-2.5-6.8-4.4
			c-2.8-2.5-5-5.7-6.4-9.4c-0.8-2.3-1.2-4.9-1.2-7.4c0-12.4,6.8-20.2,15.1-20.2S51.8,17.9,51.8,30.2z"/>
		<path class="st3" d="M60.4,59.6l-16.9-4.4h-6.8h-6.8l-16.9,4.4c0,0-7.8,2.9-8.7,12.1h32.4h32.4C68.2,62.5,60.4,59.6,60.4,59.6z"/>
		<path class="st0" d="M60.4,59.6l-16.9-4.4h-6.8h-6.8l-16.9,4.4c0,0-7.8,2.9-8.7,12.1h32.4h32.4C68.2,62.5,60.4,59.6,60.4,59.6z"/>
		<path class="st6" d="M25.6,16c0,0,5.1,7.6,17.9,8.4c0,0-1.1-0.5-2.3-3.8c0,0,4.2,3.6,9.4,5.9l1.2,2.5c0,0,0-1.3,1.2-1
			c0,0,1-9.8-3.1-14.7c0,0,1.9,0.1,3.2,1.2c0,0-1.8-3.9-8.1-6c0,0,1.5-1.3,4.4-0.4c0,0-3.7-1.7-9.9-1.5C39.3,6.6,27.1,6.1,25.6,16z"
			/>
		<path class="st6" d="M27.6,17.8l-6,11.2c0,0-0.5-0.6-0.8-0.9c0,0-0.3-15.3,8.2-18.2L27.6,17.8z"/>
		<path class="st7" d="M60.4,59.6l-12.5-3.3L36.7,71.7L25.6,56.3l-12.6,3.3c0,0-7.8,2.9-8.7,12.1h32.4h32.4
			C68.2,62.5,60.4,59.6,60.4,59.6z"/>
		<polygon class="st8" points="35.2,64 32,71.7 40.9,71.7 37.9,64 		"/>
		<g>
			<polygon class="st9" points="36.4,55.4 32.5,60.7 35.2,64.1 36.6,64 37.9,64 40.6,60.6 			"/>
			<path class="st10" d="M39.1,60c-0.5,1-1.5,2.1-2.7,1.9c-1.3-0.3-1.9-1.5-1.6-2.8c0.3-1.2,1.1-2.3,1.5-3.5l-3.8,5.1l2.8,3.4l2.7,0
				l2.6-3.5l-1.1-1.4C39.4,59.4,39.2,59.7,39.1,60z"/>
		</g>
		<polygon class="st11" points="36.7,71.7 25.6,56.3 16.7,58.7 28,66.6 25.1,67.9 30.4,71.7 		"/>
		<polygon class="st11" points="36.7,71.8 47.7,56.4 56.6,58.7 45.3,66.6 48.2,67.9 42.9,71.8 		"/>
		<polygon class="st12" points="23.2,55.5 29.8,52.4 36.6,55.3 43.4,52.4 50.5,55.5 40.4,62.3 36.6,56.8 32.5,62.3 		"/>
	</g>
</g>
</svg>
