<?xml version="1.0" encoding="utf-8"?>
<!-- Generator: Adobe Illustrator 22.0.1, SVG Export Plug-In . SVG Version: 6.00 Build 0)  -->
<svg version="1.1" id="Слой_1" xmlns="http://www.w3.org/2000/svg" xmlns:xlink="http://www.w3.org/1999/xlink" x="0px" y="0px"
	 viewBox="0 0 51.7 51.7" style="enable-background:new 0 0 51.7 51.7;" xml:space="preserve">
<style type="text/css">
	.st0{fill:url(#SVGID_1_);}
	.st1{fill:#FFFFFF;}
</style>
<g>
	
		<linearGradient id="SVGID_1_" gradientUnits="userSpaceOnUse" x1="-180.5902" y1="-342.0273" x2="-136.8668" y2="-298.3039" gradientTransform="matrix(0 1 -1 0 -294.3341 184.56)">
		<stop  offset="0" style="stop-color:#5171B7"/>
		<stop  offset="0.1576" style="stop-color:#4E6CB3"/>
		<stop  offset="0.4141" style="stop-color:#485EAA"/>
		<stop  offset="0.7354" style="stop-color:#3E479D"/>
		<stop  offset="1" style="stop-color:#353191"/>
	</linearGradient>
	<path class="st0" d="M0,38.1V13.5C0,6.1,6.1,0,13.5,0h24.6c7.4,0,13.5,6.1,13.5,13.5l0,24.6c0,7.4-6.1,13.5-13.5,13.5h-8.3
		l-4.3-1.1l-3.7,1.1l-8.3,0C6.1,51.7,0,45.6,0,38.1z"/>
	<g>
		<path class="st1" d="M35.9,34.1l1.1-7.5h-7.2v-4.8c0-2,1-4,4.2-4h3.3v-6.4c0,0-3-0.5-5.8-0.5c-5.9,0-9.8,3.6-9.8,10.1v5.7h-6.6
			v7.5h6.6v17.5h8.1V34.1H35.9z"/>
	</g>
</g>
</svg>
