<?xml version="1.0" encoding="utf-8"?>
<!-- Generator: Adobe Illustrator 27.1.1, SVG Export Plug-In . SVG Version: 6.00 Build 0)  -->
<svg version="1.1" id="Capa_1" xmlns="http://www.w3.org/2000/svg" xmlns:xlink="http://www.w3.org/1999/xlink" x="0px" y="0px"
	 viewBox="0 0 70.9 70.9" style="enable-background:new 0 0 70.9 70.9;" xml:space="preserve">
<style type="text/css">
	.st0{fill:#14BAAB;}
	.st1{clip-path:url(#SVGID_00000036935776605451089860000011175595625506928266_);}
	.st2{fill:#0E0000;}
	.st3{fill:#FBBCA0;}
	.st4{fill:#E6E7E8;}
	.st5{fill:#DDA78F;}
	.st6{fill:#EC524F;}
	.st7{fill:#3C2415;}
</style>
<ellipse transform="matrix(0.3827 -0.9239 0.9239 0.3827 -10.8677 54.6355)" class="st0" cx="35.5" cy="35.5" rx="35.4" ry="35.5"/>
<g>
	<defs>
		
			<ellipse id="SVGID_1_" transform="matrix(0.3827 -0.9239 0.9239 0.3827 -10.8677 54.6355)" cx="35.5" cy="35.5" rx="35.4" ry="35.5"/>
	</defs>
	<clipPath id="SVGID_00000091734084892199898200000017708256485491443124_">
		<use xlink:href="#SVGID_1_"  style="overflow:visible;"/>
	</clipPath>
	<g style="clip-path:url(#SVGID_00000091734084892199898200000017708256485491443124_);">
		<path class="st2" d="M19.2,32.5c-0.2,0.3-0.8,24.9,3.5,30h24.5c0,0,6.7-18.9,2.1-30H19.1"/>
		<g>
			<rect x="29.1" y="46" class="st3" width="13.6" height="9.1"/>
			<path class="st4" d="M32.3,52.6c2,0.8,4.3,1.3,6.5,1.3c1.3,0,2.5-0.1,3.8-0.4V46H29.1v4.7C30,51.6,31.2,52.2,32.3,52.6z"/>
			<g>
				<path class="st3" d="M50.5,28.8c0-0.3,0.6-0.9,0.9-1.1c0.6-0.4,1.1,0,1.3,0.5c0.1,0.5,0.2,1,0.2,1.5c0.1,1.2-0.1,2.4-0.6,3.5
					c-0.4,0.7-0.9,1.3-1.6,1.8c0,0-0.7,0.4-0.9-0.5C49.7,34.6,50.5,28.8,50.5,28.8z"/>
				<path class="st5" d="M50.4,29.5c0-0.2,0.4-0.6,0.6-0.8c0.4-0.3,0.8,0,0.9,0.4c0.1,0.3,0.1,0.7,0.1,1.1c0.1,0.9-0.1,1.7-0.5,2.5
					c-0.3,0.5-0.7,1-1.2,1.3c0,0-0.5,0.3-0.6-0.3C49.9,33.7,50.4,29.5,50.4,29.5z"/>
			</g>
			<g>
				<path class="st3" d="M20.8,28.8c0-0.3-0.6-0.9-0.9-1.1c-0.6-0.4-1.1,0-1.3,0.5c-0.1,0.5-0.2,1-0.2,1.5c-0.1,1.2,0.1,2.4,0.6,3.5
					c0.4,0.7,0.9,1.3,1.6,1.8c0,0,0.7,0.4,0.9-0.5C21.6,34.6,20.8,28.8,20.8,28.8z"/>
				<path class="st5" d="M20.9,29.5c0-0.2-0.4-0.6-0.6-0.8c-0.4-0.3-0.8,0-0.9,0.4c-0.1,0.3-0.1,0.7-0.1,1.1
					c-0.1,0.9,0.1,1.7,0.5,2.5c0.3,0.5,0.7,1,1.2,1.3c0,0,0.5,0.3,0.6-0.3C21.5,33.7,20.9,29.5,20.9,29.5z"/>
			</g>
			<path class="st3" d="M51,29.9c0,3.8-0.7,7.7-2.5,11c-1.6,2.9-4,5.2-6.5,7.1c-2.1,1.5-4.3,3.3-6.9,3c-2.7-0.2-4.8-2.5-6.8-4.4
				c-2.8-2.5-5-5.7-6.4-9.4c-0.8-2.3-1.2-4.9-1.2-7.4c0-12.4,6.8-20.2,15.1-20.2C44.2,9.7,51,17.5,51,29.9z"/>
			<path class="st3" d="M56.5,59.3l-14.7-4.4h-5.9h-5.9l-14.7,4.4c0,0-6.8,2.9-7.6,12.1h28.2h28.2C63.3,62.2,56.5,59.3,56.5,59.3z"
				/>
			<path class="st6" d="M56.5,59.3l-8.2-2.4L35.8,69.3L23.3,56.9l-8.1,2.4c0,0-6.8,2.9-7.6,12.1h28.2h28.2
				C63.3,62.2,56.5,59.3,56.5,59.3z"/>
		</g>
		<path class="st7" d="M25.6,14.6c0,0,7.3,11.6,25.4,13.5c0,0,3.4-13.2-9.3-19.6C41.6,8.6,31.9,4.6,25.6,14.6z"/>
		<path class="st7" d="M27.4,17c0,0-4.7,3-6.8,11.5c0,0-2.2-16,9.1-18L27.4,17z"/>
		<path class="st7" d="M45.9,26.8c0,0,4.9,30.9-2.8,39.6c0,0,9.8-1.5,10.3-14.9c0,0,1.7-27.6-4.9-37.1L45.9,26.8z"/>
		<path class="st7" d="M25.2,66.4c0,0-11.3-1.3-8.2-36c0,0,0.8-19.3,12.1-19.7L28.4,18c0,0-6.5,1.9-5.6,17.2
			C22.8,35.2,22.1,59.7,25.2,66.4z"/>
	</g>
</g>
</svg>
