<?xml version="1.0" encoding="utf-8"?>
<!-- Generator: Adobe Illustrator 22.0.1, SVG Export Plug-In . SVG Version: 6.00 Build 0)  -->
<svg version="1.1" id="Слой_1" xmlns="http://www.w3.org/2000/svg" xmlns:xlink="http://www.w3.org/1999/xlink" x="0px" y="0px"
	 viewBox="0 0 51.7 51.7" style="enable-background:new 0 0 51.7 51.7;" xml:space="preserve">
<style type="text/css">
	.st0{fill:url(#SVGID_1_);}
	.st1{fill:#FFFFFF;}
</style>
<g>
	
		<linearGradient id="SVGID_1_" gradientUnits="userSpaceOnUse" x1="-157.056" y1="-336.4005" x2="-84.9761" y2="-264.3206" gradientTransform="matrix(0 1 -1 0 -282.1276 154.4462)">
		<stop  offset="1.104800e-03" style="stop-color:#FFE187"/>
		<stop  offset="0.2094" style="stop-color:#FDB944"/>
		<stop  offset="0.3765" style="stop-color:#F05577"/>
		<stop  offset="0.5238" style="stop-color:#ED3995"/>
		<stop  offset="0.7394" style="stop-color:#8E509F"/>
		<stop  offset="1" style="stop-color:#5E5DA9"/>
	</linearGradient>
	<path class="st0" d="M0,44L0,7.6C0,3.4,3.4,0,7.6,0L44,0c4.2,0,7.6,3.4,7.6,7.6l0,36.4c0,4.2-3.4,7.6-7.6,7.6l-36.4,0
		C3.4,51.7,0,48.2,0,44z"/>
	<g>
		<path class="st1" d="M33.8,16.1c-1,0-1.8,0.8-1.8,1.8c0,1,0.8,1.8,1.8,1.8c1,0,1.8-0.8,1.8-1.8C35.6,16.9,34.8,16.1,33.8,16.1z"/>
		<path class="st1" d="M26,18.4c-4.1,0-7.5,3.3-7.5,7.5c0,4.1,3.3,7.5,7.5,7.5c4.1,0,7.5-3.3,7.5-7.5C33.4,21.7,30.1,18.4,26,18.4z
			 M26,30.6c-2.6,0-4.8-2.1-4.8-4.8s2.1-4.8,4.8-4.8c2.6,0,4.8,2.1,4.8,4.8S28.6,30.6,26,30.6z"/>
		<path class="st1" d="M31.9,41H19.8c-5,0-9.1-4.1-9.1-9.1V19.8c0-5,4.1-9.1,9.1-9.1h12.1c5,0,9.1,4.1,9.1,9.1v12.1
			C41,36.9,36.9,41,31.9,41z M19.8,13.5c-3.4,0-6.2,2.8-6.2,6.2v12.1c0,3.4,2.8,6.2,6.2,6.2h12.1c3.4,0,6.2-2.8,6.2-6.2V19.8
			c0-3.4-2.8-6.2-6.2-6.2H19.8z"/>
	</g>
</g>
</svg>
