<?xml version="1.0" encoding="utf-8"?>
<!-- Generator: Adobe Illustrator 27.1.1, SVG Export Plug-In . SVG Version: 6.00 Build 0)  -->
<svg version="1.1" id="Layer_1" xmlns="http://www.w3.org/2000/svg" xmlns:xlink="http://www.w3.org/1999/xlink" x="0px" y="0px"
	 viewBox="0 0 53.5 70.9" style="enable-background:new 0 0 53.5 70.9;" xml:space="preserve">
<style type="text/css">
	.st0{fill:#616263;}
	.st1{opacity:0.6;fill:#616263;}
	.st2{fill:#323535;}
	.st3{fill:#77787A;}
	.st4{fill:#AAAAAA;}
	.st5{fill:#AD561F;}
	.st6{fill:#6C6E6E;}
</style>
<g>
	<g>
		<path class="st0" d="M13.4,28.9v-2.9c0-8,5.4-17.2,12.5-17.2h1.8c7,0,12.5,9.2,12.5,17.2v2.9h7.5v-7c0-5.3-2.1-10.7-5.7-14.9
			c-3.9-4.5-8.9-7-14.2-7h-2.1c-5.3,0-10.3,2.5-14.2,7c-3.6,4.2-5.7,9.6-5.7,14.9v7H13.4z"/>
		<path class="st1" d="M42,7c-0.3-0.4-0.7-0.8-1-1.1c0.2,0.4,0.3,0.9,0.3,1.3c0.1,1.2-0.5,2.5-1.4,3.3c-0.9,0.7-2,0.7-3,0.3
			c-0.7-0.3-1.3-0.8-2-1.2c-0.7-0.5-1.5-0.9-2.4-1.2c-1.6-0.6-3.3-0.9-5.1-1c-3.1,0-6.3,0.8-8.9,2.6c-2.4,1.7-4.1,4.1-5.4,6.7
			c-0.9,1.8-1.2,3.9-2.6,5.5c-0.6,0.7-1.3,1.1-2.2,0.9c-1-0.2-1.7-0.8-2.1-1.7C6.2,20.9,6,20.3,6,19.7c-0.1,0.7-0.1,1.5-0.1,2.2v7
			h7.5v-2.9c0-8,5.4-17.2,12.5-17.2h1.8c7,0,12.5,9.2,12.5,17.2v2.9h7.5v-7C47.6,16.7,45.6,11.2,42,7z"/>
		<rect x="40.1" y="26.4" class="st1" width="7.5" height="2.5"/>
		<rect x="5.9" y="26.4" class="st1" width="7.5" height="2.5"/>
		<path class="st2" d="M53.4,29.8c-0.2-0.4-0.4-0.8-0.8-1.1c-0.5-0.4-1.1-0.6-1.7-0.7H2.5c-0.6,0.1-1.3,0.3-1.7,0.7
			c-0.4,0.4-0.6,0.8-0.7,1.4c0,0.1,0,0.2,0,0.3v10.4c0,39.7,53.5,40.7,53.5,0V30.3C53.5,30.2,53.5,30,53.4,29.8z"/>
		<path class="st3" d="M52.3,30.4c-0.2-0.4-0.4-0.8-0.8-1c-0.5-0.4-1.1-0.5-1.7-0.7H3.4c-0.6,0.1-1.2,0.3-1.7,0.7
			c-0.4,0.3-0.6,0.7-0.7,1.3c0,0.1,0,0.2,0,0.3v9.6c0,36.8,51.4,37.7,51.4,0v-9.6C52.4,30.7,52.3,30.6,52.3,30.4z"/>
		<path class="st4" d="M50.1,31.1c-0.1-0.3-0.4-0.7-0.7-0.9c-0.5-0.3-1-0.5-1.5-0.6H5c-0.6,0.1-1.1,0.2-1.5,0.6
			c-0.4,0.3-0.6,0.6-0.6,1.1c0,0.1,0,0.1,0,0.2v8.2c0,31.3,47.4,32.1,47.4,0v-8.2C50.2,31.3,50.2,31.2,50.1,31.1z"/>
		<path class="st5" d="M33.1,41.5c0-3.3-2.8-6-6.3-6c-3.5,0-6.3,2.7-6.3,6c0,2.5,1.7,4.7,4,5.5l-4.5,13.6h13.2l-4.1-13.6
			C31.4,46.2,33.1,44,33.1,41.5z"/>
		<g>
			<path class="st6" d="M22.2,41.5c0-3,2.4-5.5,5.5-5.9c-0.3,0-0.6-0.1-0.9-0.1c-3.5,0-6.3,2.7-6.3,6c0,2.5,1.7,4.7,4,5.5l-4.5,13.6
				h1.7L26.2,47C23.8,46.1,22.2,44,22.2,41.5z"/>
			<path class="st2" d="M33.1,41.5c0-3-2.4-5.5-5.5-5.9c-3.1,0.4-5.5,2.9-5.5,5.9c0,2.5,1.7,4.7,4,5.5l-4.5,13.6h11.4l-4.1-13.6
				C31.4,46.2,33.1,44,33.1,41.5z"/>
		</g>
		<path class="st4" d="M6.8,19.1c0,0,3.2-19,23-18.3C29.8,0.8,12.2,2.1,6.8,19.1z"/>
		<path class="st4" d="M4.5,31.9c0,0-0.6,1.6,0.1,3c0.7,1.4,8.7-0.7,8.5-2.6C12.9,30.4,5.7,29,4.5,31.9z"/>
		<path class="st4" d="M4.3,38.7c0,0-0.3,1.4,0,2.7c0.4,1.2,4.3-0.6,4.2-2.3C8.5,37.4,4.9,36.1,4.3,38.7z"/>
	</g>
</g>
</svg>
