<?xml version="1.0" encoding="utf-8"?>
<!-- Generator: Adobe Illustrator 27.1.1, SVG Export Plug-In . SVG Version: 6.00 Build 0)  -->
<svg version="1.1" id="Layer_1" xmlns="http://www.w3.org/2000/svg" xmlns:xlink="http://www.w3.org/1999/xlink" x="0px" y="0px"
	 viewBox="0 0 60 60" style="enable-background:new 0 0 60 60;" xml:space="preserve">
<g>
	<g>
		<path d="M0,18.87v35.38h50.98V18.87H0z M48.49,43.82c-3.05,0-5.52,3.28-5.52,7.32H8.01c0-4.04-2.47-7.32-5.52-7.32V29.29
			c3.05,0,5.52-3.28,5.52-7.32h34.96c0,4.04,2.47,7.32,5.52,7.32V43.82z"/>
		<g>
			<path d="M21.78,31.46c-0.01,0.11-0.02,0.23-0.02,0.35c0,1.59,1.17,2.93,2.76,3.33v-6.66C23.05,28.85,21.94,30.03,21.78,31.46z"/>
			<path d="M26.46,44.63c1.58-0.4,2.75-1.74,2.75-3.33c0,0,0,0,0-0.01c-0.01-1.59-1.17-2.92-2.75-3.32V44.63z"/>
			<path d="M25.49,21.98c-5.17,0-9.37,6.53-9.37,14.58c0,8.06,4.2,14.59,9.37,14.59c5.18,0,9.37-6.53,9.37-14.59
				C34.86,28.5,30.66,21.98,25.49,21.98z M31.16,41.3c0,2.97-2.03,5.45-4.7,5.94v0.33c0,0.71-0.44,1.29-0.97,1.29
				c-0.54,0-0.97-0.58-0.97-1.29v-0.33c-2.67-0.49-4.7-2.97-4.7-5.94c0-0.71,0.44-1.29,0.97-1.29c0.54,0,0.97,0.58,0.97,1.29
				c0,1.59,1.17,2.93,2.76,3.33v-6.87c-2.67-0.49-4.7-2.97-4.7-5.94c0-0.42,0.04-0.82,0.11-1.22c0.47-2.41,2.3-4.31,4.59-4.73v-0.33
				c0-0.71,0.44-1.29,0.97-1.29c0.54,0,0.97,0.58,0.97,1.29v0.33c2.66,0.49,4.7,2.97,4.7,5.94c0,0.71-0.44,1.29-0.97,1.29
				c-0.54,0-0.97-0.58-0.97-1.29c0-1.59-1.17-2.93-2.75-3.33v6.87C29.13,35.85,31.16,38.33,31.16,41.3z"/>
		</g>
	</g>
	<g>
		<path d="M52.37,50.21L60,27.74l-7.63-4.55v10.45c0.54,0.95,1.26,1.73,2.14,2.26l-2.14,6.29V50.21z"/>
		<polygon points="43.7,56.81 49.04,60 50.12,56.81 		"/>
		<path d="M10.6,16.6l1.95-5.75c2.78,1.66,6.05,0.02,7.3-3.67l15.78,9.41h5.71L13.51,0L7.87,16.6H10.6z"/>
	</g>
</g>
</svg>
