<?xml version="1.0" encoding="utf-8"?>
<!-- Generator: Adobe Illustrator 27.1.1, SVG Export Plug-In . SVG Version: 6.00 Build 0)  -->
<svg version="1.1" id="Layer_1" xmlns="http://www.w3.org/2000/svg" xmlns:xlink="http://www.w3.org/1999/xlink" x="0px" y="0px"
	 viewBox="0 0 70.9 70.9" style="enable-background:new 0 0 70.9 70.9;" xml:space="preserve">
<style type="text/css">
	.st0{fill:#008435;}
	.st1{fill:#FFFFFF;}
</style>
<g>
	<path d="M47.6,37.5c6-3.7,9.9-9.9,9.9-17C57.6,9.2,47.6,0,35.4,0S13.3,9.2,13.3,20.4c0,7.1,3.9,13.4,9.9,17C9.7,42.1,0,54.1,0,68.1
		v2.7h70.9v-2.7C70.9,54.1,61.2,42.1,47.6,37.5z M19.2,20.4c0-8.3,7.3-15,16.2-15s16.2,6.7,16.2,15s-7.3,15-16.2,15
		S19.2,28.7,19.2,20.4z M6.1,65.4c1.5-13.8,14.1-24.5,29.4-24.5s27.9,10.8,29.4,24.5H6.1z"/>
</g>
<g>
	<circle class="st0" cx="55.4" cy="54.9" r="14.4"/>
	<path class="st1" d="M55.4,70.1c-8.4,0-15.2-6.8-15.2-15.2S47,39.6,55.4,39.6s15.2,6.8,15.2,15.2S63.8,70.1,55.4,70.1z M55.4,41.2
		c-7.6,0-13.6,6.2-13.6,13.6c0,7.6,6.2,13.6,13.6,13.6S69,62.3,69,54.9C69,47.2,62.9,41.2,55.4,41.2z"/>
</g>
<circle class="st1" cx="55.4" cy="54.9" r="8.7"/>
</svg>
