<?xml version="1.0" encoding="utf-8"?>
<!-- Generator: Adobe Illustrator 27.1.1, SVG Export Plug-In . SVG Version: 6.00 Build 0)  -->
<svg version="1.1" id="Layer_1" xmlns="http://www.w3.org/2000/svg" xmlns:xlink="http://www.w3.org/1999/xlink" x="0px" y="0px"
	 viewBox="0 0 60 60" style="enable-background:new 0 0 60 60;" xml:space="preserve">
<g>
	<path d="M20.24,60c-3.73,0-6.76-3.6-6.76-8.04s3.03-8.04,6.76-8.04c3.73,0,6.77,3.61,6.77,8.04S23.97,60,20.24,60z"/>
	<path d="M50.6,60c-3.73,0-6.77-3.6-6.77-8.04s3.03-8.04,6.77-8.04c3.73,0,6.76,3.61,6.76,8.04S54.33,60,50.6,60z"/>
	<path d="M50.6,53.2H21.74c-0.81,0-1.58-0.46-2.06-1.24c-0.48-0.78-0.62-1.79-0.37-2.71l3.88-11.32c0.22-0.63,0.83-0.94,1.36-0.68
		c0.53,0.26,0.79,0.98,0.57,1.62L21.27,50.1c-0.02,0.08,0.01,0.26,0.09,0.4c0.09,0.14,0.23,0.22,0.37,0.22H50.6
		c0.58,0,1.04,0.55,1.04,1.24C51.65,52.65,51.18,53.2,50.6,53.2z"/>
	<g>
		<path d="M59.51,8.15c-0.48-0.77-1.25-1.24-2.06-1.24L13.98,6.93l-2.04-5.56c-0.17-0.45-0.54-0.74-0.96-0.74H1.33
			c-0.58,0-1.04,0.55-1.04,1.24c0,0.68,0.47,1.24,1.04,1.24h8.98l12.75,34.7c0.4,1.11,1.32,1.83,2.34,1.83h24.98
			c1.12,0,2.09-0.85,2.43-2.12l7.08-26.67C60.13,9.94,59.99,8.93,59.51,8.15z M48.24,32.47H26.91c-0.58,0-1.04-0.55-1.04-1.24
			c0-0.68,0.47-1.24,1.04-1.24h21.33c0.58,0,1.04,0.55,1.04,1.24C49.28,31.92,48.81,32.47,48.24,32.47z M50.06,24.65H25.09
			c-0.58,0-1.04-0.55-1.04-1.24c0-0.68,0.47-1.24,1.04-1.24h24.97c0.58,0,1.04,0.55,1.04,1.24C51.1,24.09,50.63,24.65,50.06,24.65z
			 M51.55,16.82H23.6c-0.58,0-1.04-0.55-1.04-1.24c0-0.68,0.47-1.24,1.04-1.24h27.95c0.58,0,1.04,0.55,1.04,1.24
			C52.59,16.27,52.13,16.82,51.55,16.82z"/>
	</g>
	<path d="M3.29,1.95c0,1.08-0.74,1.95-1.64,1.95C0.74,3.91,0,3.03,0,1.95C0,0.87,0.74,0,1.64,0C2.55,0,3.29,0.87,3.29,1.95z"/>
</g>
</svg>
