<?xml version="1.0" encoding="utf-8"?>
<!-- Generator: Adobe Illustrator 22.0.1, SVG Export Plug-In . SVG Version: 6.00 Build 0)  -->
<svg version="1.1" id="Слой_1" xmlns="http://www.w3.org/2000/svg" xmlns:xlink="http://www.w3.org/1999/xlink" x="0px" y="0px"
	 viewBox="0 0 51.7 51.7" style="enable-background:new 0 0 51.7 51.7;" xml:space="preserve">
<style type="text/css">
	.st0{fill:url(#SVGID_1_);}
	.st1{fill:#FFFFFF;}
</style>
<g>
	<g>
		
			<linearGradient id="SVGID_1_" gradientUnits="userSpaceOnUse" x1="-122.1584" y1="-319.1005" x2="-74.9896" y2="-271.9316" gradientTransform="matrix(0 1 -1 0 -269.6846 124.4054)">
			<stop  offset="0" style="stop-color:#00B8E9"/>
			<stop  offset="1" style="stop-color:#3279BE"/>
		</linearGradient>
		<path class="st0" d="M0,44V7.6C0,3.4,3.4,0,7.6,0H44c4.2,0,7.6,3.4,7.6,7.6V44c0,4.2-3.4,7.6-7.6,7.6H7.6C3.4,51.7,0,48.2,0,44z"
			/>
		<path class="st1" d="M40.1,17c-0.9,0.4-1.9,0.7-2.8,0.8c0.5-0.1,1.1-0.9,1.4-1.2c0.4-0.5,0.8-1.1,0.9-1.7c0,0,0-0.1,0-0.1
			c-0.1,0-0.1,0-0.2,0c-1.1,0.6-2.2,1-3.4,1.3c-0.1,0-0.2,0-0.2-0.1c-0.1-0.1-0.2-0.2-0.3-0.3c-0.5-0.4-1-0.8-1.6-1
			c-0.8-0.3-1.7-0.5-2.5-0.4c-0.8,0.1-1.6,0.3-2.4,0.7c-0.7,0.4-1.4,0.9-1.9,1.6c-0.5,0.7-0.9,1.5-1.1,2.3c-0.2,0.8-0.2,1.6-0.1,2.4
			c0,0.1,0,0.2-0.1,0.1c-4.6-0.7-8.5-2.4-11.6-5.9c-0.1-0.2-0.2-0.2-0.3,0c-1.4,2-0.7,5.3,1,7c0.2,0.2,0.5,0.4,0.7,0.6
			c-0.1,0-1.2-0.1-2.2-0.6c-0.1-0.1-0.2,0-0.2,0.1c0,0.2,0,0.4,0,0.7c0.3,2.1,1.7,4,3.7,4.7c0.2,0.1,0.5,0.2,0.7,0.2
			c-0.4,0.1-0.9,0.2-2.2,0.1c-0.2,0-0.2,0-0.2,0.2c1,2.6,3.1,3.4,4.6,3.9c0.2,0,0.4,0,0.6,0.1c0,0,0,0,0,0c-0.5,0.8-2.3,1.4-3.2,1.7
			c-1.5,0.5-3.2,0.8-4.8,0.6c-0.3,0-0.3,0-0.4,0c-0.1,0,0,0.1,0.1,0.2c0.3,0.2,0.7,0.4,1,0.6c1,0.5,2.1,1,3.2,1.3
			c5.8,1.6,12.2,0.4,16.5-3.9c3.4-3.4,4.6-8,4.6-12.7c0-0.2,0.2-0.3,0.3-0.4c0.9-0.7,1.6-1.5,2.3-2.3c0.1-0.2,0.1-0.4,0.1-0.4
			c0,0,0,0,0,0C40.2,16.9,40.2,16.9,40.1,17z"/>
	</g>
</g>
</svg>
