<?xml version="1.0" encoding="utf-8"?>
<!-- Generator: Adobe Illustrator 27.1.1, SVG Export Plug-In . SVG Version: 6.00 Build 0)  -->
<svg version="1.1" id="Layer_1" xmlns="http://www.w3.org/2000/svg" xmlns:xlink="http://www.w3.org/1999/xlink" x="0px" y="0px"
	 viewBox="0 0 70.87 70.87" style="enable-background:new 0 0 70.87 70.87;" xml:space="preserve">
<g>
	<path d="M47.64,37.48c5.98-3.66,9.94-9.93,9.94-17.04C57.58,9.17,47.64,0,35.43,0S13.29,9.17,13.29,20.44
		c0,7.11,3.95,13.37,9.94,17.04C9.69,42.08,0,54.07,0,68.14v2.73h70.87v-2.73C70.87,54.07,61.18,42.08,47.64,37.48z M19.19,20.44
		c0-8.27,7.28-14.99,16.24-14.99s16.24,6.72,16.24,14.99s-7.28,14.99-16.24,14.99C26.48,35.43,19.19,28.71,19.19,20.44z M6.06,65.41
		c1.49-13.76,14.1-24.53,29.38-24.53s27.89,10.77,29.38,24.53H6.06z"/>
</g>
</svg>
