<?xml version="1.0" encoding="utf-8"?>
<!-- Generator: Adobe Illustrator 22.0.1, SVG Export Plug-In . SVG Version: 6.00 Build 0)  -->
<svg version="1.1" id="Слой_1" xmlns="http://www.w3.org/2000/svg" xmlns:xlink="http://www.w3.org/1999/xlink" x="0px" y="0px"
	 viewBox="0 0 163.3 163.3" style="enable-background:new 0 0 163.3 163.3;" xml:space="preserve">
<style type="text/css">
	.st0{fill:url(#SVGID_1_);}
	.st1{fill:url(#SVGID_2_);}
	.st2{fill:url(#SVGID_3_);}
	.st3{fill:url(#SVGID_4_);}
	.st4{fill:url(#SVGID_5_);}
	.st5{fill:url(#SVGID_6_);}
	.st6{fill:url(#SVGID_7_);}
	.st7{fill:url(#SVGID_8_);}
	.st8{fill:url(#SVGID_9_);}
	.st9{fill:url(#SVGID_10_);}
	.st10{fill:url(#SVGID_11_);}
	.st11{fill:url(#SVGID_12_);}
	.st12{fill:url(#SVGID_13_);}
	.st13{fill:url(#SVGID_14_);}
	.st14{fill:url(#SVGID_15_);}
	.st15{fill:url(#SVGID_16_);}
	.st16{fill:url(#SVGID_17_);}
	.st17{fill:url(#SVGID_18_);}
	.st18{fill:url(#SVGID_19_);}
	.st19{fill:url(#SVGID_20_);}
	.st20{fill:url(#SVGID_21_);}
	.st21{fill:url(#SVGID_22_);}
	.st22{fill:url(#SVGID_23_);}
	.st23{fill:url(#SVGID_24_);}
	.st24{fill:url(#SVGID_25_);}
	.st25{fill:url(#SVGID_26_);}
	.st26{fill:url(#SVGID_27_);}
	.st27{fill:none;stroke:#0A1321;stroke-width:4;stroke-miterlimit:10;}
	.st28{fill:#FAFDFC;stroke:#010101;stroke-width:4;stroke-miterlimit:10;}
	.st29{fill:none;stroke:#010101;stroke-width:4;stroke-miterlimit:10;}
	.st30{fill:#010101;}
</style>
<g>
	<g>
		<radialGradient id="SVGID_1_" cx="87.8215" cy="4.1952" r="200.5567" gradientUnits="userSpaceOnUse">
			<stop  offset="0.1344" style="stop-color:#FFFFFF"/>
			<stop  offset="0.3423" style="stop-color:#F9FAFB"/>
			<stop  offset="0.5216" style="stop-color:#EEF0F2"/>
			<stop  offset="0.6902" style="stop-color:#DCE3E8"/>
			<stop  offset="0.8514" style="stop-color:#C4D2DA"/>
			<stop  offset="1" style="stop-color:#A8BFCB"/>
		</radialGradient>
		<ellipse class="st0" cx="81.7" cy="81.7" rx="81.7" ry="81.7"/>
		<radialGradient id="SVGID_2_" cx="88.103" cy="9.9434" r="197.9996" gradientUnits="userSpaceOnUse">
			<stop  offset="0.1344" style="stop-color:#FFFFFF"/>
			<stop  offset="0.3423" style="stop-color:#F9FAFB"/>
			<stop  offset="0.5216" style="stop-color:#EEF0F2"/>
			<stop  offset="0.6902" style="stop-color:#DCE3E8"/>
			<stop  offset="0.8514" style="stop-color:#C4D2DA"/>
			<stop  offset="1" style="stop-color:#A8BFCB"/>
		</radialGradient>
		<circle class="st1" cx="81.7" cy="81.7" r="80.3"/>
		<radialGradient id="SVGID_3_" cx="88.3748" cy="15.506" r="195.2614" gradientUnits="userSpaceOnUse">
			<stop  offset="0.1344" style="stop-color:#FFFFFF"/>
			<stop  offset="0.3423" style="stop-color:#F9FAFB"/>
			<stop  offset="0.5216" style="stop-color:#EEF0F2"/>
			<stop  offset="0.6902" style="stop-color:#DCE3E8"/>
			<stop  offset="0.8514" style="stop-color:#C4D2DA"/>
			<stop  offset="1" style="stop-color:#A8BFCB"/>
		</radialGradient>
		<path class="st2" d="M160.6,78.2c1.9,43.6-31.8,80.4-75.4,82.4c-43.6,1.9-80.5-31.8-82.4-75.4C0.9,41.6,34.6,4.7,78.2,2.8
			C121.7,0.9,158.6,34.6,160.6,78.2z"/>
		<radialGradient id="SVGID_4_" cx="88.6376" cy="20.8882" r="192.3633" gradientUnits="userSpaceOnUse">
			<stop  offset="0.1344" style="stop-color:#FFFFFF"/>
			<stop  offset="0.3423" style="stop-color:#F9FAFB"/>
			<stop  offset="0.5216" style="stop-color:#EEF0F2"/>
			<stop  offset="0.6902" style="stop-color:#DCE3E8"/>
			<stop  offset="0.8514" style="stop-color:#C4D2DA"/>
			<stop  offset="1" style="stop-color:#A8BFCB"/>
		</radialGradient>
		<path class="st3" d="M159.2,76.4c2.9,42.8-29.4,79.8-72.2,82.7c-42.8,2.9-79.8-29.4-82.7-72.2C1.3,44.1,33.6,7.1,76.4,4.2
			C119.2,1.3,156.3,33.6,159.2,76.4z"/>
		<radialGradient id="SVGID_5_" cx="88.8922" cy="26.0957" r="189.326" gradientUnits="userSpaceOnUse">
			<stop  offset="0.1344" style="stop-color:#FFFFFF"/>
			<stop  offset="0.3423" style="stop-color:#F9FAFB"/>
			<stop  offset="0.5216" style="stop-color:#EEF0F2"/>
			<stop  offset="0.6902" style="stop-color:#DCE3E8"/>
			<stop  offset="0.8514" style="stop-color:#C4D2DA"/>
			<stop  offset="1" style="stop-color:#A8BFCB"/>
		</radialGradient>
		<path class="st4" d="M157.8,74.7c3.9,42-27.1,79.2-69.1,83.1c-42,3.9-79.2-27.1-83.1-69.1C1.7,46.6,32.6,9.4,74.7,5.6
			C116.7,1.7,153.9,32.6,157.8,74.7z"/>
		<radialGradient id="SVGID_6_" cx="89.1394" cy="31.1342" r="186.1695" gradientUnits="userSpaceOnUse">
			<stop  offset="0.1344" style="stop-color:#FFFFFF"/>
			<stop  offset="0.3423" style="stop-color:#F9FAFB"/>
			<stop  offset="0.5216" style="stop-color:#EEF0F2"/>
			<stop  offset="0.6902" style="stop-color:#DCE3E8"/>
			<stop  offset="0.8514" style="stop-color:#C4D2DA"/>
			<stop  offset="1" style="stop-color:#A8BFCB"/>
		</radialGradient>
		<path class="st5" d="M156.4,72.9c4.8,41.3-24.7,78.6-66,83.5c-41.3,4.8-78.6-24.7-83.5-66C2.1,49.2,31.7,11.8,72.9,7
			C114.2,2.1,151.5,31.7,156.4,72.9z"/>
		<radialGradient id="SVGID_7_" cx="89.3801" cy="36.0102" r="182.9135" gradientUnits="userSpaceOnUse">
			<stop  offset="0.1344" style="stop-color:#FFFFFF"/>
			<stop  offset="0.3423" style="stop-color:#F9FAFB"/>
			<stop  offset="0.5216" style="stop-color:#EEF0F2"/>
			<stop  offset="0.6902" style="stop-color:#DCE3E8"/>
			<stop  offset="0.8514" style="stop-color:#C4D2DA"/>
			<stop  offset="1" style="stop-color:#A8BFCB"/>
		</radialGradient>
		<path class="st6" d="M155,71.2c5.8,40.5-22.3,78-62.8,83.8c-40.5,5.8-78-22.3-83.8-62.8c-5.8-40.5,22.3-78,62.8-83.8
			C111.7,2.6,149.2,30.7,155,71.2z"/>
		<radialGradient id="SVGID_8_" cx="89.6152" cy="40.7305" r="179.5768" gradientUnits="userSpaceOnUse">
			<stop  offset="0.1344" style="stop-color:#FFFFFF"/>
			<stop  offset="0.3423" style="stop-color:#F9FAFB"/>
			<stop  offset="0.5216" style="stop-color:#EEF0F2"/>
			<stop  offset="0.6902" style="stop-color:#DCE3E8"/>
			<stop  offset="0.8514" style="stop-color:#C4D2DA"/>
			<stop  offset="1" style="stop-color:#A8BFCB"/>
		</radialGradient>
		<path class="st7" d="M153.6,69.4c6.8,39.7-20,77.4-59.7,84.2c-39.7,6.8-77.4-20-84.2-59.7C3,54.2,29.7,16.5,69.4,9.7
			C109.1,3,146.8,29.7,153.6,69.4z"/>
		<radialGradient id="SVGID_9_" cx="89.8458" cy="45.3023" r="176.1779" gradientUnits="userSpaceOnUse">
			<stop  offset="0.1344" style="stop-color:#FFFFFF"/>
			<stop  offset="0.3423" style="stop-color:#F9FAFB"/>
			<stop  offset="0.5216" style="stop-color:#EEF0F2"/>
			<stop  offset="0.6902" style="stop-color:#DCE3E8"/>
			<stop  offset="0.8514" style="stop-color:#C4D2DA"/>
			<stop  offset="1" style="stop-color:#A8BFCB"/>
		</radialGradient>
		<path class="st8" d="M152.2,67.7c7.7,39-17.6,76.8-56.5,84.5c-39,7.7-76.8-17.6-84.5-56.5c-7.7-39,17.6-76.8,56.5-84.5
			C106.6,3.4,144.5,28.7,152.2,67.7z"/>
		<radialGradient id="SVGID_10_" cx="90.0727" cy="49.7332" r="172.7344" gradientUnits="userSpaceOnUse">
			<stop  offset="0.1344" style="stop-color:#FFFFFF"/>
			<stop  offset="0.3423" style="stop-color:#F9FAFB"/>
			<stop  offset="0.5216" style="stop-color:#EEF0F2"/>
			<stop  offset="0.6902" style="stop-color:#DCE3E8"/>
			<stop  offset="0.8514" style="stop-color:#C4D2DA"/>
			<stop  offset="1" style="stop-color:#A8BFCB"/>
		</radialGradient>
		<path class="st9" d="M150.8,65.9c8.7,38.2-15.2,76.2-53.4,84.9c-38.2,8.7-76.2-15.2-84.9-53.4C3.8,59.2,27.7,21.2,65.9,12.5
			C104.1,3.8,142.1,27.7,150.8,65.9z"/>
		<radialGradient id="SVGID_11_" cx="90.2971" cy="54.0316" r="169.2632" gradientUnits="userSpaceOnUse">
			<stop  offset="0.1344" style="stop-color:#FFFFFF"/>
			<stop  offset="0.3423" style="stop-color:#F9FAFB"/>
			<stop  offset="0.5216" style="stop-color:#EEF0F2"/>
			<stop  offset="0.6902" style="stop-color:#DCE3E8"/>
			<stop  offset="0.8514" style="stop-color:#C4D2DA"/>
			<stop  offset="1" style="stop-color:#A8BFCB"/>
		</radialGradient>
		<path class="st10" d="M149.4,64.2c9.7,37.4-12.8,75.6-50.3,85.2c-37.4,9.7-75.6-12.8-85.2-50.3C4.3,61.7,26.8,23.6,64.2,13.9
			C101.6,4.3,139.8,26.8,149.4,64.2z"/>
		<radialGradient id="SVGID_12_" cx="90.5202" cy="58.206" r="165.7806" gradientUnits="userSpaceOnUse">
			<stop  offset="0.1344" style="stop-color:#FFFFFF"/>
			<stop  offset="0.3423" style="stop-color:#F9FAFB"/>
			<stop  offset="0.5216" style="stop-color:#EEF0F2"/>
			<stop  offset="0.6902" style="stop-color:#DCE3E8"/>
			<stop  offset="0.8514" style="stop-color:#C4D2DA"/>
			<stop  offset="1" style="stop-color:#A8BFCB"/>
		</radialGradient>
		<path class="st11" d="M148,62.4c10.6,36.6-10.5,75-47.1,85.6c-36.6,10.6-75-10.5-85.6-47.1c-10.6-36.6,10.5-75,47.1-85.6
			C99.1,4.7,137.4,25.8,148,62.4z"/>
		<radialGradient id="SVGID_13_" cx="90.7429" cy="62.2656" r="162.3022" gradientUnits="userSpaceOnUse">
			<stop  offset="0.1344" style="stop-color:#FFFFFF"/>
			<stop  offset="0.3423" style="stop-color:#F9FAFB"/>
			<stop  offset="0.5216" style="stop-color:#EEF0F2"/>
			<stop  offset="0.6902" style="stop-color:#DCE3E8"/>
			<stop  offset="0.8514" style="stop-color:#C4D2DA"/>
			<stop  offset="1" style="stop-color:#A8BFCB"/>
		</radialGradient>
		<path class="st12" d="M146.6,60.7c11.6,35.9-8.1,74.4-44,86c-35.9,11.6-74.4-8.1-86-44c-11.6-35.9,8.1-74.4,44-86
			C96.6,5.1,135,24.8,146.6,60.7z"/>
		<radialGradient id="SVGID_14_" cx="90.9666" cy="66.2202" r="158.8426" gradientUnits="userSpaceOnUse">
			<stop  offset="0.1344" style="stop-color:#FFFFFF"/>
			<stop  offset="0.3423" style="stop-color:#F9FAFB"/>
			<stop  offset="0.5216" style="stop-color:#EEF0F2"/>
			<stop  offset="0.6902" style="stop-color:#DCE3E8"/>
			<stop  offset="0.8514" style="stop-color:#C4D2DA"/>
			<stop  offset="1" style="stop-color:#A8BFCB"/>
		</radialGradient>
		<path class="st13" d="M145.2,58.9c12.6,35.1-5.7,73.8-40.8,86.3c-35.1,12.6-73.8-5.7-86.3-40.8C5.5,69.3,23.8,30.6,58.9,18.1
			C94,5.5,132.7,23.8,145.2,58.9z"/>
		<radialGradient id="SVGID_15_" cx="91.1925" cy="70.0799" r="155.416" gradientUnits="userSpaceOnUse">
			<stop  offset="0.1344" style="stop-color:#FFFFFF"/>
			<stop  offset="0.3423" style="stop-color:#F9FAFB"/>
			<stop  offset="0.5216" style="stop-color:#EEF0F2"/>
			<stop  offset="0.6902" style="stop-color:#DCE3E8"/>
			<stop  offset="0.8514" style="stop-color:#C4D2DA"/>
			<stop  offset="1" style="stop-color:#A8BFCB"/>
		</radialGradient>
		<path class="st14" d="M143.9,57.2c13.5,34.3-3.3,73.2-37.7,86.7c-34.3,13.5-73.1-3.3-86.7-37.7C6,71.8,22.8,33,57.2,19.5
			C91.5,6,130.3,22.8,143.9,57.2z"/>
		<radialGradient id="SVGID_16_" cx="91.4217" cy="73.8554" r="152.0358" gradientUnits="userSpaceOnUse">
			<stop  offset="0.1344" style="stop-color:#FFFFFF"/>
			<stop  offset="0.3423" style="stop-color:#F9FAFB"/>
			<stop  offset="0.5216" style="stop-color:#EEF0F2"/>
			<stop  offset="0.6902" style="stop-color:#DCE3E8"/>
			<stop  offset="0.8514" style="stop-color:#C4D2DA"/>
			<stop  offset="1" style="stop-color:#A8BFCB"/>
		</radialGradient>
		<path class="st15" d="M142.5,55.4c14.5,33.6-1,72.5-34.6,87c-33.6,14.5-72.5-1-87-34.6c-14.5-33.6,1-72.5,34.6-87
			C89,6.4,128,21.8,142.5,55.4z"/>
		<radialGradient id="SVGID_17_" cx="91.6557" cy="77.5578" r="148.715" gradientUnits="userSpaceOnUse">
			<stop  offset="0.1344" style="stop-color:#FFFFFF"/>
			<stop  offset="0.3423" style="stop-color:#F9FAFB"/>
			<stop  offset="0.5216" style="stop-color:#EEF0F2"/>
			<stop  offset="0.6902" style="stop-color:#DCE3E8"/>
			<stop  offset="0.8514" style="stop-color:#C4D2DA"/>
			<stop  offset="1" style="stop-color:#A8BFCB"/>
		</radialGradient>
		<path class="st16" d="M141.1,53.7c15.5,32.8,1.4,71.9-31.4,87.4c-32.8,15.5-71.9,1.4-87.4-31.4C6.8,76.8,20.9,37.7,53.7,22.3
			C86.5,6.8,125.6,20.9,141.1,53.7z"/>
		<radialGradient id="SVGID_18_" cx="91.8956" cy="81.1988" r="145.4659" gradientUnits="userSpaceOnUse">
			<stop  offset="0.1344" style="stop-color:#FFFFFF"/>
			<stop  offset="0.3423" style="stop-color:#F9FAFB"/>
			<stop  offset="0.5216" style="stop-color:#EEF0F2"/>
			<stop  offset="0.6902" style="stop-color:#DCE3E8"/>
			<stop  offset="0.8514" style="stop-color:#C4D2DA"/>
			<stop  offset="1" style="stop-color:#A8BFCB"/>
		</radialGradient>
		<path class="st17" d="M139.7,51.9c16.4,32,3.8,71.3-28.3,87.8c-32,16.4-71.3,3.8-87.7-28.3c-16.4-32-3.8-71.3,28.3-87.8
			C84,7.2,123.3,19.9,139.7,51.9z"/>
		<radialGradient id="SVGID_19_" cx="92.1428" cy="84.7904" r="142.3009" gradientUnits="userSpaceOnUse">
			<stop  offset="0.1344" style="stop-color:#FFFFFF"/>
			<stop  offset="0.3423" style="stop-color:#F9FAFB"/>
			<stop  offset="0.5216" style="stop-color:#EEF0F2"/>
			<stop  offset="0.6902" style="stop-color:#DCE3E8"/>
			<stop  offset="0.8514" style="stop-color:#C4D2DA"/>
			<stop  offset="1" style="stop-color:#A8BFCB"/>
		</radialGradient>
		<path class="st18" d="M138.3,50.2c17.4,31.3,6.1,70.7-25.1,88.1c-31.3,17.4-70.7,6.1-88.1-25.1C7.7,81.9,18.9,42.4,50.2,25
			C81.4,7.7,120.9,18.9,138.3,50.2z"/>
		<radialGradient id="SVGID_20_" cx="92.3986" cy="88.3449" r="139.2321" gradientUnits="userSpaceOnUse">
			<stop  offset="0.1344" style="stop-color:#FFFFFF"/>
			<stop  offset="0.3423" style="stop-color:#F9FAFB"/>
			<stop  offset="0.5216" style="stop-color:#EEF0F2"/>
			<stop  offset="0.6902" style="stop-color:#DCE3E8"/>
			<stop  offset="0.8514" style="stop-color:#C4D2DA"/>
			<stop  offset="1" style="stop-color:#A8BFCB"/>
		</radialGradient>
		<path class="st19" d="M136.9,48.4c18.4,30.5,8.5,70.1-22,88.5c-30.5,18.4-70.1,8.5-88.5-22c-18.4-30.5-8.5-70.1,22-88.5
			C78.9,8.1,118.5,17.9,136.9,48.4z"/>
		<radialGradient id="SVGID_21_" cx="92.6642" cy="91.8749" r="136.2723" gradientUnits="userSpaceOnUse">
			<stop  offset="0.1344" style="stop-color:#FFFFFF"/>
			<stop  offset="0.3423" style="stop-color:#F9FAFB"/>
			<stop  offset="0.5216" style="stop-color:#EEF0F2"/>
			<stop  offset="0.6902" style="stop-color:#DCE3E8"/>
			<stop  offset="0.8514" style="stop-color:#C4D2DA"/>
			<stop  offset="1" style="stop-color:#A8BFCB"/>
		</radialGradient>
		<path class="st20" d="M135.5,46.7c19.3,29.7,10.9,69.5-18.8,88.8c-29.7,19.3-69.5,10.9-88.8-18.8C8.5,86.9,16.9,47.2,46.7,27.8
			C76.4,8.5,116.2,16.9,135.5,46.7z"/>
		<radialGradient id="SVGID_22_" cx="92.941" cy="95.3933" r="133.4346" gradientUnits="userSpaceOnUse">
			<stop  offset="0.1344" style="stop-color:#FFFFFF"/>
			<stop  offset="0.3423" style="stop-color:#F9FAFB"/>
			<stop  offset="0.5216" style="stop-color:#EEF0F2"/>
			<stop  offset="0.6902" style="stop-color:#DCE3E8"/>
			<stop  offset="0.8514" style="stop-color:#C4D2DA"/>
			<stop  offset="1" style="stop-color:#A8BFCB"/>
		</radialGradient>
		<path class="st21" d="M134.1,44.9c20.3,29,13.3,68.9-15.7,89.2c-29,20.3-68.9,13.3-89.2-15.7C8.9,89.4,16,49.5,44.9,29.2
			C73.9,8.9,113.8,16,134.1,44.9z"/>
		<radialGradient id="SVGID_23_" cx="93.2303" cy="98.9132" r="130.7336" gradientUnits="userSpaceOnUse">
			<stop  offset="0.1344" style="stop-color:#FFFFFF"/>
			<stop  offset="0.3423" style="stop-color:#F9FAFB"/>
			<stop  offset="0.5216" style="stop-color:#EEF0F2"/>
			<stop  offset="0.6902" style="stop-color:#DCE3E8"/>
			<stop  offset="0.8514" style="stop-color:#C4D2DA"/>
			<stop  offset="1" style="stop-color:#A8BFCB"/>
		</radialGradient>
		<path class="st22" d="M132.7,43.2c21.3,28.2,15.6,68.3-12.6,89.5C92,154,51.9,148.3,30.6,120.1C9.4,92,15,51.9,43.2,30.6
			C71.4,9.4,111.5,15,132.7,43.2z"/>
		<radialGradient id="SVGID_24_" cx="93.5331" cy="102.4477" r="128.1855" gradientUnits="userSpaceOnUse">
			<stop  offset="0.1344" style="stop-color:#FFFFFF"/>
			<stop  offset="0.3423" style="stop-color:#F9FAFB"/>
			<stop  offset="0.5216" style="stop-color:#EEF0F2"/>
			<stop  offset="0.6902" style="stop-color:#DCE3E8"/>
			<stop  offset="0.8514" style="stop-color:#C4D2DA"/>
			<stop  offset="1" style="stop-color:#A8BFCB"/>
		</radialGradient>
		<path class="st23" d="M131.3,41.4c22.2,27.4,18,67.7-9.4,89.9c-27.4,22.2-67.7,18-89.9-9.4C9.8,94.5,14,54.2,41.4,32
			C68.9,9.8,109.1,14,131.3,41.4z"/>
		<radialGradient id="SVGID_25_" cx="93.8506" cy="106.0097" r="125.809" gradientUnits="userSpaceOnUse">
			<stop  offset="0.1344" style="stop-color:#FFFFFF"/>
			<stop  offset="0.3423" style="stop-color:#F9FAFB"/>
			<stop  offset="0.5216" style="stop-color:#EEF0F2"/>
			<stop  offset="0.6902" style="stop-color:#DCE3E8"/>
			<stop  offset="0.8514" style="stop-color:#C4D2DA"/>
			<stop  offset="1" style="stop-color:#A8BFCB"/>
		</radialGradient>
		<path class="st24" d="M129.9,39.7c23.2,26.7,20.4,67.1-6.3,90.3c-26.7,23.2-67.1,20.4-90.3-6.3C10.2,97,13,56.6,39.7,33.4
			C66.3,10.2,106.7,13,129.9,39.7z"/>
		<radialGradient id="SVGID_26_" cx="94.184" cy="109.6124" r="123.6257" gradientUnits="userSpaceOnUse">
			<stop  offset="0.1344" style="stop-color:#FFFFFF"/>
			<stop  offset="0.3423" style="stop-color:#F9FAFB"/>
			<stop  offset="0.5216" style="stop-color:#EEF0F2"/>
			<stop  offset="0.6902" style="stop-color:#DCE3E8"/>
			<stop  offset="0.8514" style="stop-color:#C4D2DA"/>
			<stop  offset="1" style="stop-color:#A8BFCB"/>
		</radialGradient>
		<path class="st25" d="M128.5,37.9c24.2,25.9,22.8,66.5-3.1,90.6c-25.9,24.2-66.5,22.8-90.6-3.1C10.6,99.5,12,58.9,37.9,34.8
			C63.8,10.6,104.4,12,128.5,37.9z"/>
		<radialGradient id="SVGID_27_" cx="94.5343" cy="113.2684" r="121.6614" gradientUnits="userSpaceOnUse">
			<stop  offset="0.1344" style="stop-color:#FFFFFF"/>
			<stop  offset="0.3423" style="stop-color:#F9FAFB"/>
			<stop  offset="0.5216" style="stop-color:#EEF0F2"/>
			<stop  offset="0.6902" style="stop-color:#DCE3E8"/>
			<stop  offset="0.8514" style="stop-color:#C4D2DA"/>
			<stop  offset="1" style="stop-color:#A8BFCB"/>
		</radialGradient>
		<path class="st26" d="M127.2,36.2c25.1,25.1,25.1,65.9,0,91c-25.1,25.1-65.8,25.1-91,0c-25.1-25.1-25.1-65.8,0-91
			C61.3,11.1,102,11.1,127.2,36.2z"/>
	</g>
	<path class="st27" d="M17.8,81.7c0-35.2,28.6-63.8,63.8-63.8s63.8,28.6,63.8,63.8c0,35.2-28.6,63.8-63.8,63.8S17.8,116.9,17.8,81.7
		z"/>
	<g>
		<g>
			<circle class="st28" cx="81.4" cy="81.7" r="37.8"/>
			<line class="st29" x1="81.4" y1="43.7" x2="81.4" y2="50.7"/>
			<line class="st29" x1="108.2" y1="54.8" x2="103.1" y2="59.9"/>
			<line class="st29" x1="119.4" y1="81.7" x2="112.4" y2="81.7"/>
			<line class="st29" x1="108.2" y1="108.5" x2="103.1" y2="103.4"/>
			<line class="st29" x1="81.4" y1="119.7" x2="81.4" y2="112.7"/>
			<line class="st29" x1="54.5" y1="108.5" x2="59.6" y2="103.4"/>
			<line class="st29" x1="43.4" y1="81.7" x2="50.4" y2="81.7"/>
			<line class="st29" x1="54.5" y1="54.8" x2="59.6" y2="59.9"/>
		</g>
		<g>
			<path class="st30" d="M65.7,90.4v-1.6l2.1-2c5-4.7,7.2-7.2,7.2-10.2c0-2-1-3.8-3.9-3.8c-1.8,0-3.2,0.9-4.1,1.6l-0.8-1.9
				c1.3-1.1,3.3-2,5.5-2c4.2,0,6,2.9,6,5.7c0,3.6-2.6,6.5-6.7,10.4l-1.6,1.4v0.1h8.7v2.2H65.7z"/>
			<path class="st30" d="M89.2,90.4v-5.3h-9v-1.7L88.8,71h2.8V83h2.7v2.1h-2.7v5.3H89.2z M89.2,83v-6.5c0-1,0-2,0.1-3.1h-0.1
				c-0.6,1.1-1.1,2-1.6,2.9L82.8,83V83H89.2z"/>
		</g>
	</g>
</g>
</svg>
